# File created by Blade
# Date/Time:  Wed Jan 21 17:34:14 2015
#---------------------------------------------------------
:version 1.10
:name HOM
:units
  mass 1.0
  length 1.000000
  angle deg
:documentation
     Acclaim Skeleton File
:root
   axis xyz
   order TX TY TZ RX RY RZ
   position 0.000000 0.000000 0.000000
   orientation 0 0 0
:bonedata
   begin
      id 1
      name Spine_dum
      direction 0.000000 1.000000 0.000000
      length 7.067664
      axis 0.0 0.0 0.0 xyz
   end
   begin
      id 2
      name LeftUpLeg_dum
      direction 1.000000 0.000000 0.000000
      length 4.013002
      axis 0.0 0.0 0.0 xyz
   end
   begin
      id 3
      name RightUpLeg_dum
      direction -1.000000 0.000000 0.000000
      length 4.013002
      axis 0.0 0.0 0.0 xyz
   end
   begin
      id 4
      name Spine
      direction 0.000000 1.000000 0.000000
      length 0.000000
      axis 0.0 0.0 0.0 xyz
      dof rx ry rz
   end
   begin
      id 5
      name Spine_dum1
      direction 0.000000 1.000000 0.000000
      length 15.039886
      axis 0.0 0.0 0.0 xyz
   end
   begin
      id 6
      name Spine_dum2
      direction 0.000000 1.000000 0.000000
      length 10.530368
      axis 0.0 0.0 0.0 xyz
   end
   begin
      id 7
      name Spine_dum3
      direction 0.000000 1.000000 0.000000
      length 10.530368
      axis 0.0 0.0 0.0 xyz
   end
   begin
      id 8
      name Head
      direction 0.000000 1.000000 0.000000
      length 4.527550
      axis 0.0 0.0 0.0 xyz
      dof rx ry rz
   end
   begin
      id 9
      name LeftShoulder
      direction 1.000000 0.000000 0.000000
      length 7.028855
      axis 0.0 0.0 -90.0 xyz
      dof rx ry rz
   end
   begin
      id 10
      name LeftArm
      direction 1.000000 0.000000 0.000000
      length 10.797705
      axis 0.0 0.0 -90.0 xyz
      dof rx ry rz
   end
   begin
      id 11
      name LeftForeArm
      direction 1.000000 0.000000 0.000000
      length 7.907442
      axis 0.0 0.0 -90.0 xyz
      dof ry rz rx
   end
   begin
      id 12
      name LeftHand
      direction 0.000000 0.000000 0.000000
      length 0.000000
      axis 0.0 0.0 -90.0 xyz
      dof rx ry rz
   end
   begin
      id 13
      name LeftHand_dum1
      direction 0.000000 0.000000 0.000000
      length 0.000000
      axis 0.0 0.0 -90.0 xyz
   end
   begin
      id 14
      name LeftHand_dum2
      direction 1.000000 0.000000 0.000000
      length 3.937000
      axis 0.0 0.0 -90.0 xyz
   end
   begin
      id 15
      name LeftHandThumb1
      direction 0.000000 0.000000 1.000000
      length 3.937000
      axis 0.0 0.0 -90.0 xyz
      dof rx rz ry
   end
   begin
      id 16
      name RightShoulder
      direction -1.000000 0.000000 0.000000
      length 7.028855
      axis 0.0 0.0 90.0 xyz
      dof rx ry rz
   end
   begin
      id 17
      name RightArm
      direction -1.000000 0.000000 0.000000
      length 10.797705
      axis 0.0 0.0 90.0 xyz
      dof rx ry rz
   end
   begin
      id 18
      name RightForeArm
      direction -1.000000 0.000000 0.000000
      length 7.907442
      axis 0.0 0.0 90.0 xyz
      dof ry rz rx
   end
   begin
      id 19
      name RightHand
      direction 0.000000 0.000000 0.000000
      length 0.000000
      axis 0.0 0.0 90.0 xyz
      dof rx ry rz
   end
   begin
      id 20
      name RightHand_dum1
      direction 0.000000 0.000000 0.000000
      length 0.000000
      axis 0.0 0.0 90.0 xyz
   end
   begin
      id 21
      name RightHand_dum2
      direction -1.000000 0.000000 0.000000
      length 3.937000
      axis 0.0 0.0 90.0 xyz
   end
   begin
      id 22
      name RightHandThumb1
      direction 0.000000 0.000000 1.000000
      length 3.937000
      axis 0.0 0.0 90.0 xyz
      dof rx rz ry
   end
   begin
      id 23
      name LeftUpLeg
      direction 0.000000 -1.000000 0.000000
      length 16.899758
      axis 0.0 0.0 0.0 xyz
      dof rx ry rz
   end
   begin
      id 24
      name LeftLeg
      direction 0.000000 -1.000000 0.000000
      length 17.389183
      axis 0.0 0.0 0.0 xyz
      dof rx ry rz
   end
   begin
      id 25
      name LeftFoot
      direction 0.000000 -0.258819 0.965926
      length 4.924528
      axis 15.0 0.0 0.0 xyz
      dof rx ry rz
   end
   begin
      id 26
      name LeftToeBase
      direction 0.000000 0.000000 1.000000
      length 2.952750
      axis 0.0 0.0 0.0 xyz
      dof rx ry rz
   end
   begin
      id 27
      name RightUpLeg
      direction 0.000000 -1.000000 0.000000
      length 16.899758
      axis 0.0 0.0 0.0 xyz
      dof rx ry rz
   end
   begin
      id 28
      name RightLeg
      direction 0.000000 -1.000000 0.000000
      length 17.389183
      axis 0.0 0.0 0.0 xyz
      dof rx ry rz
   end
   begin
      id 29
      name RightFoot
      direction 0.000000 -0.258819 0.965926
      length 4.924528
      axis 15.0 0.0 0.0 xyz
      dof rx ry rz
   end
   begin
      id 30
      name RightToeBase
      direction 0.000000 0.000000 1.000000
      length 2.952750
      axis 0.0 0.0 0.0 xyz
      dof rx ry rz
   end
:hierarchy
   begin
      root Spine_dum LeftUpLeg_dum RightUpLeg_dum
      Spine_dum Spine
      LeftUpLeg_dum LeftUpLeg
      RightUpLeg_dum RightUpLeg
      Spine Spine_dum1 Spine_dum2 Spine_dum3
      Spine_dum1 Head
      Spine_dum2 LeftShoulder
      Spine_dum3 RightShoulder
      LeftShoulder LeftArm
      LeftArm LeftForeArm
      LeftForeArm LeftHand
      LeftHand LeftHand_dum1 LeftHand_dum2
      LeftHand_dum1 LeftHandThumb1
      RightShoulder RightArm
      RightArm RightForeArm
      RightForeArm RightHand
      RightHand RightHand_dum1 RightHand_dum2
      RightHand_dum1 RightHandThumb1
      LeftUpLeg LeftLeg
      LeftLeg LeftFoot
      LeftFoot LeftToeBase
      RightUpLeg RightLeg
      RightLeg RightFoot
      RightFoot RightToeBase
   end

# File created by Blade
# Date/Time:  Wed Jan 21 17:34:04 2015
# Frame Rate: 120.000 fps
#------------------------------------------------------
:FULLY-SPECIFIED
:DEGREES
1
root 20.210273 35.392493 -23.674138 -176.213724 -2.019028 -179.182496
Spine -12.070340 -0.822962 0.323798
Head 6.851697 -1.300714 0.852224
LeftShoulder -12.404161 -32.134640 20.621475
LeftArm -1.577031 -1.931782 -7.712446
LeftForeArm 9.762583 -0.000000 -3.014336
LeftHand -8.729749 -0.000000 -2.665101
LeftHandThumb1 -26.253704 0.000000 33.147579
RightShoulder -11.814426 -2.193988 -11.669347
RightArm -0.297236 41.147797 9.630486
RightForeArm -34.222374 -0.000000 5.471537
RightHand -8.403123 -0.000000 7.291406
RightHandThumb1 -24.326973 -0.000000 -32.862282
LeftUpLeg 6.913022 6.894111 1.438102
LeftLeg -6.095964 -0.000000 0.000000
LeftFoot -20.464920 24.734334 -11.578191
LeftToeBase 23.735731 -0.000000 -0.000000
RightUpLeg 6.004714 -12.141925 -0.549090
RightLeg -4.134326 -0.000000 0.000000
RightFoot -21.461005 -24.789584 15.582367
RightToeBase 24.783330 -0.000000 -0.000000
2
root 20.211377 35.392405 -23.675310 -176.215507 -2.033331 -179.188607
Spine -12.070925 -0.814689 0.312653
Head 6.860584 -1.323325 0.852886
LeftShoulder -12.392135 -32.147490 20.633312
LeftArm -1.593725 -1.936576 -7.725906
LeftForeArm 9.788130 -0.000000 -2.999202
LeftHand -8.736118 -0.000000 -2.646051
LeftHandThumb1 -26.253704 0.000000 33.147579
RightShoulder -11.802362 -2.161847 -11.676383
RightArm -0.350800 41.152270 9.568283
RightForeArm -34.155798 -0.000000 5.445643
RightHand -8.306810 0.000000 7.275333
RightHandThumb1 -24.326973 -0.000000 -32.862282
LeftUpLeg 6.916341 6.890731 1.434943
LeftLeg -6.100335 -0.000000 0.000000
LeftFoot -20.461519 24.728038 -11.588371
LeftToeBase 23.723108 -0.000000 -0.000000
RightUpLeg 6.021118 -12.157466 -0.554689
RightLeg -4.156493 -0.000000 0.000000
RightFoot -21.442932 -24.802132 15.480232
RightToeBase 24.939675 -0.000000 -0.000000
3
root 20.213293 35.392360 -23.675003 -176.209426 -2.047856 -179.189291
Spine -12.080366 -0.807907 0.307446
Head 6.877782 -1.323833 0.846814
LeftShoulder -12.374825 -32.151390 20.624123
LeftArm -1.594097 -1.936897 -7.717114
LeftForeArm 9.802506 -0.000000 -3.000934
LeftHand -8.750571 -0.000000 -2.712548
LeftHandThumb1 -26.253704 0.000000 33.147579
RightShoulder -11.782146 -2.172708 -11.682858
RightArm -0.399334 41.142227 9.539838
RightForeArm -34.138545 -0.000000 5.471575
RightHand -8.311276 -0.000000 7.287427
RightHandThumb1 -24.326973 -0.000000 -32.862282
LeftUpLeg 6.907210 6.887297 1.437984
LeftLeg -6.101341 -0.000000 0.000000
LeftFoot -20.458098 24.715972 -11.581582
LeftToeBase 23.743767 -0.000000 -0.000000
RightUpLeg 6.018397 -12.165501 -0.550456
RightLeg -4.159785 -0.000000 0.000000
RightFoot -21.439282 -24.798185 15.479182
RightToeBase 24.903389 -0.000000 -0.000000
4
root 20.214179 35.392234 -23.675196 -176.200457 -2.060909 -179.193194
Spine -12.092423 -0.803777 0.304620
Head 6.891705 -1.330040 0.839815
LeftShoulder -12.369413 -32.173936 20.621855
LeftArm -1.597130 -1.926995 -7.709327
LeftForeArm 9.839957 -0.000000 -2.994389
LeftHand -8.726108 -0.000000 -2.748907
LeftHandThumb1 -26.253704 0.000000 33.147579
RightShoulder -11.793397 -2.174229 -11.706189
RightArm -0.342839 41.128280 9.610502
RightForeArm -34.257989 -0.000000 5.530804
RightHand -8.625165 -0.000000 7.239709
RightHandThumb1 -24.326973 -0.000000 -32.862282
LeftUpLeg 6.895648 6.880986 1.434997
LeftLeg -6.100542 -0.000000 0.000000
LeftFoot -20.453971 24.718031 -11.580517
LeftToeBase 23.762373 -0.000000 -0.000000
RightUpLeg 6.016927 -12.173898 -0.550579
RightLeg -4.169821 -0.000000 0.000000
RightFoot -21.442887 -24.799563 15.487537
RightToeBase 24.916235 -0.000000 -0.000000
